<svg xmlns="http://www.w3.org/2000/svg" version="1.1" xmlns:xlink="http://www.w3.org/1999/xlink" xmlns:svgjs="http://svgjs.com/svgjs" width="1920" height="1080" preserveAspectRatio="none" viewBox="0 0 1920 1080"><g mask="url(&quot;#SvgjsMask1446&quot;)" fill="none"><rect width="1920" height="1080" x="0" y="0" fill="url(#SvgjsLinearGradient1447)"></rect><path d="M642.72 1115.74C850.33 961.57 732.77 190.39 1089.42 182.78 1446.07 175.17 1733.83 613.65 1982.82 625.58" stroke="rgba(101, 194, 51, 0.58)" stroke-width="2"></path><path d="M136.38 1161.6C386.72 1040.63 382.5 264.63 744.18 230.23 1105.85 195.83 1048.08 365.23 1351.97 365.23 1655.87 365.23 1804.12 231.04 1959.77 230.23" stroke="rgba(101, 194, 51, 0.58)" stroke-width="2"></path><path d="M711.45 1255.72C921.68 1126.14 818.93 393.42 1188.05 390.47 1557.16 387.52 1872.92 872.66 2141.24 887.27" stroke="rgba(101, 194, 51, 0.58)" stroke-width="2"></path><path d="M680.33 1152.02C912.99 1130.18 1005.27 679.36 1463.53 641.78 1921.79 604.2 2021.03 204.16 2246.73 188.18" stroke="rgba(101, 194, 51, 0.58)" stroke-width="2"></path><path d="M441.74 1181.98C670.71 1028.69 539.11 214.69 948.86 203.4 1358.61 192.11 1693.49 565.01 1963.1 570.6" stroke="rgba(101, 194, 51, 0.58)" stroke-width="2"></path></g><defs><mask id="SvgjsMask1446"><rect width="1920" height="1080" fill="#ffffff"></rect></mask><linearGradient x1="10.94%" y1="-19.44%" x2="89.06%" y2="119.44%" gradientUnits="userSpaceOnUse" id="SvgjsLinearGradient1447"><stop stop-color="#0e2a47" offset="0"></stop><stop stop-color="rgba(112, 156, 214, 1)" offset="1"></stop></linearGradient></defs></svg>